. 
 
http://www.torrenting.com          :     Once & For all ;)


               www . Torrenting . Com 

(((((((((((((= Enjoy No RAR releases =))))))))))))))))))))


...................................NFO:....................................

.[pre]
oooooo     oooo  o8o   .oooooo..o ooooo     ooo       .o.       ooooo         o8o   .oooooo..o oooooooooooo
`888.     .8'   `"'  d8P'    `Y8 `888'     `8'      .888.      `888'         `"'  d8P'    `Y8 `888'     `8
 `888.   .8'   oooo  Y88bo.       888       8      .8"888.      888         oooo  Y88bo.       888        
  `888. .8'    `888   `"Y8888o.   888       8     .8' `888.     888         `888   `"Y8888o.   888oooo8    
   `888.8'      888       `"Y88b  888       8    .88ooo8888.    888          888       `"Y88b  888    "    
    `888'       888  oo     .d8P  `88.    .8'   .8'     `888.   888       o  888  oo     .d8P  888       o
     `8'       o888o 8""88888P'     `YbodP'    o88o     o8888o o888ooooood8 o888o 8""88888P'  o888ooooood8




Title: Tower Heist 2011 CAM XviD - VISUALiSE
Format: Xvid
Language: English
Subtitles: No
Imdb: http://www.imdb.com/title/tt0471042/

Plot:
When a group of hard working guys find out they've fallen 
victim to a wealthy business man's Ponzi scheme, 
they conspire to rob his high-rise residence. 

Sources:
Video: HP - Many Thanks :D
Audio: HP - Many Thanks :D

Release Notes:
VISUALiSE Bringing you 
Tower Heist 2011 CAM XviD - VISUALiSE
Thanks to HP for the source ;) ;)  
which was looking nice :)
Cropped, Resized, Ran some filters and
a little sharpen then muxed the audio back 
to our encode :D :D

for those who cant be bother'd or CANT 
use the HP files feel free to re encode this
we know you will :lol:

enjoy. :P

Info:

Video
ID                               : 0
Format                           : MPEG-4 Visual
Format profile                   : Advanced Simple@L5
Format settings, BVOP            : 2
Format settings, QPel            : No
Format settings, GMC             : No warppoints
Format settings, Matrix          : Default (H.263)
Codec ID                         : XVID
Codec ID/Hint                    : XviD
Duration                         : 1h 33mn
Bit rate                         : 1 498 Kbps
Width                            : 720 pixels
Height                           : 304 pixels
Display aspect ratio             : 2.35:1
Frame rate                       : 29.970 fps
Color space                      : YUV
Chroma subsampling               : 4:2:0
Bit depth                        : 8 bits
Scan type                        : Progressive
Compression mode                 : Lossy
Bits/(Pixel*Frame)               : 0.228
Stream size                      : 1 000 MiB (91%)

Audio
ID                               : 1
Format                           : MPEG Audio
Format version                   : Version 1
Format profile                   : Layer 3
Codec ID                         : 55
Codec ID/Hint                    : MP3
Duration                         : 1h 33mn
Bit rate mode                    : Constant
Bit rate                         : 128 Kbps
Channel(s)                       : 2 channels
Sampling rate                    : 48.0 KHz
Compression mode                 : Lossy
Stream size                      : 85.4 MiB (8%)
Alignment                        : Aligned on interleaves
Interleave, duration             : 33 ms (1.00 video frame)


Screens:
[IMG]http://i.imgur.com/bRxrG.png[/IMG]
[IMG]http://i.imgur.com/RDHNh.png[/IMG]
[IMG]http://i.imgur.com/MR9HV.png[/IMG]
[IMG]http://i.imgur.com/UsMN8.png[/IMG]

Greetz
The Select Few .... YOU Know Who YOU Are ;)
The Rest Of YOU ....................SUCK :P
[/pre]